# xmcd
#
# Track frame offsets: 
#        150
#        14382
#        26845
#        39039
#        53184
#        67764
#        79022
#        94839
#        108963
#        122126
#        135682
#        147469
#        158883
#        172561
#        183307
#        195390
#        207658
#        219201
#        230448
#        240800
#        250330
#        264336
#        277175
#        291369
#        303292
#        314898
#        329001
#        343675
#
# Disc length: 4750 seconds
#
# Revision: 0
# Processed by: cddbd v1.5.2PL0 Copyright (c) Steve Scherf et al.
# Submitted via: ExactAudioCopy v1.0b3
#
DISCID=94128c1c
DTITLE=Trio Nordestino - Sucessos Inesquecíveis Do Vinil
DYEAR=2010
DGENRE=Forró
TTITLE0=Na Emenda
TTITLE1=Menino De Colo
TTITLE2=Chap-Chap
TTITLE3=Forró Desarmado
TTITLE4=Forró Pesado
TTITLE5=O Bicho Bom
TTITLE6=Corte O Bolo
TTITLE7=Meu Pitiguari
TTITLE8=Petrolina-Juazeiro
TTITLE9=Capital Do Forró
TTITLE10=Cochilou Cachimbo Cai
TTITLE11=Chupando Gelo
TTITLE12=Menina Apimentada
TTITLE13=Pau De Arara É A Vovozinha
TTITLE14=Como Tem Zé Na Paraíba
TTITLE15=Esquenta Moreninha
TTITLE16=O Que É Que Você Está Fazendo Aí Meu Bem
TTITLE17=Forró Do Bole Bole
TTITLE18=A Bochechuda
TTITLE19=Cabra Mole
TTITLE20=Bom Demais
TTITLE21=Conversa De Motorista
TTITLE22=O Neném
TTITLE23=Fartura De Beijo
TTITLE24=A Pergunta
TTITLE25=O Assalto
TTITLE26=No Balanço
TTITLE27=Não Pise No Pé Dela
EXTD=
EXTT0=
EXTT1=
EXTT2=
EXTT3=
EXTT4=
EXTT5=
EXTT6=
EXTT7=
EXTT8=
EXTT9=
EXTT10=
EXTT11=
EXTT12=
EXTT13=
EXTT14=
EXTT15=
EXTT16=
EXTT17=
EXTT18=
EXTT19=
EXTT20=
EXTT21=
EXTT22=
EXTT23=
EXTT24=
EXTT25=
EXTT26=
EXTT27=
PLAYORDER=
